# xmcd
#
# Track frame offsets: 
#        150
#        17951
#        31615
#        52235
#        69266
#        88361
#        105082
#        121483
#        136918
#        156644
#        174781
#        191623
#        205258
#        223454
#        244917
#        258465
#        272521
#        287032
#        300975
#        312270
#        341692
#
# Disc length: 4740 seconds
#
# Revision: 3
# Processed by: cddbd v1.5.2PL0 Copyright (c) Steve Scherf et al.
# Submitted via: ExactAudioCopyFreeDBPlugin 1.0
#
DISCID=37128215
DTITLE=Various Artist - Hot and New Country Music - Nr1 Sommer 2010
DYEAR=2010
DGENRE=Country
TTITLE0=Taylor Swift - Love Story
TTITLE1=Sugerland - It Happens
TTITLE2=Brad Paisley - American Saturday Night
TTITLE3=Miranda Lambert - White Liar
TTITLE4=Kevin Costner and Modern West - Let Me Be The One
TTITLE5=Blake Shelton - Hillbilly Bone
TTITLE6=Debbie Nunn - Bubbles
TTITLE7=Alan Jackson - It's Just That Way
TTITLE8=Carrie Undwerood - Temporary Home
TTITLE9=John Rich - Shuttin' Detroit Down
TTITLE10=Billy Cirrington - That's How Country Boys Roll
TTITLE11=Kenny Chesney and Mac McAnally - Down The Road
TTITLE12=Jason Michael Carroll - Hurry Home
TTITLE13=Kellie Pickler - Didn't You Know How Much I Loved You
TTITLE14=Craig Morgan - Bonfire
TTITLE15=Tim McGraw - It's A Business Doing Pleasure With You
TTITLE16=Josh Turner - Why Don't We Just Dance
TTITLE17=Jake Owen - Don't Think I Can't Love You
TTITLE18=Cledus T. Judd - Tiger By The Tail
TTITLE19=Jason Aldean - The Truth
TTITLE20=Data - Data
EXTD=
EXTT0=
EXTT1=
EXTT2=
EXTT3=
EXTT4=
EXTT5=
EXTT6=
EXTT7=
EXTT8=
EXTT9=
EXTT10=
EXTT11=
EXTT12=
EXTT13=
EXTT14=
EXTT15=
EXTT16=
EXTT17=
EXTT18=
EXTT19=
EXTT20=
PLAYORDER=
